<svg xmlns="http://www.w3.org/2000/svg" viewBox="0 0 265.35 50.57"><defs><style>.cls-1{fill:#fff;}</style></defs><g id="Layer_2" data-name="Layer 2"><g id="Footer"><polygon class="cls-1" points="27.01 50.56 0 50.56 0 10.06 27.01 40.58 27.01 50.56"/><polygon class="cls-1" points="27.23 19.83 10.2 0 55.7 0 27.23 30.17 27.23 19.83"/><polygon class="cls-1" points="68.49 50.56 27.78 50.56 68.49 5.87 68.49 50.56"/><path class="cls-1" d="M82.05,7.57,92.33,37.72h.1l9.91-30.15h5.06L96.81,40.43c-1.1,3.34-2.45,4.28-4.38,4.28s-3.24-.94-4.38-4.28L76.94,7.57Z"/><path class="cls-1" d="M126.42,7a19,19,0,0,1,19.09,18.88,19.09,19.09,0,0,1-38.18,0A19,19,0,0,1,126.42,7m0,33.17a14,14,0,0,0,14-14.29,14,14,0,1,0-27.95,0,14,14,0,0,0,14,14.29"/><path class="cls-1" d="M154.94,7.57V31.09c0,5.64,2.3,8.4,7.41,8.4h4.74v4.59h-5.48c-7,0-11.58-4.9-11.58-11.78V7.57Z"/><path class="cls-1" d="M170.92,44.08V20.93c0-8.66,5.38-14,12.47-14s12.47,5.32,12.47,14V44.08H191V27.5H177.81V22.91H191v-2.3c0-5.73-3.07-9.07-7.56-9.07s-7.56,3.34-7.56,9.07V44.08Z"/><path class="cls-1" d="M201.34,44.08V20c0-8.19,4.9-13,12.1-13,6.73,0,11.27,4.75,11.27,10.38,0,3.49-1.21,6.31-4.23,8.13,3.13,1.26,4.85,3.13,4.85,8.45V44.08h-4.9v-10c0-3.6-2.09-5.95-6.62-5.95h-5.43V23.53h3.86c4.33,0,7.56-2,7.56-6.05a6.07,6.07,0,0,0-6.36-5.94c-4.23,0-7.2,2.81-7.2,7v25.5Z"/><rect class="cls-1" x="232.34" y="7.57" width="4.9" height="36.51"/><path class="cls-1" d="M241.82,39.49h12.52c4.33,0,6.1-1.56,6.1-4.74,0-7.46-18.36-7.15-18.36-18,0-5.94,4.28-9.18,10-9.18h11.63v4.6h-12.3c-2.71,0-4.43,1.51-4.43,4.32,0,6.73,18.36,6.73,18.36,17.84,0,5.84-3.66,9.75-10.12,9.75H241.82Z"/></g></g></svg>